<mxfile host="app.diagrams.net" modified="2024-04-07T16:02:10.578Z" agent="Mozilla/5.0 (Windows NT 10.0; Win64; x64) AppleWebKit/537.36 (KHTML, like Gecko) Chrome/123.0.0.0 Safari/537.36" version="24.2.2" etag="v1SAxihNFqJzi0Kcc4ec" type="github">
  <diagram name="第 1 页" id="Cf0o3TIX2BagnPaKL93B">
    <mxGraphModel>
      <root>
        <mxCell id="0" />
        <mxCell id="1" parent="0" />
      </root>
    </mxGraphModel>
  </diagram>
</mxfile>
